<svg width="24" height="24" viewBox="0 0 24 24" fill="none" xmlns="http://www.w3.org/2000/svg">
  <path d="M9 11.5C10.6569 11.5 12 10.1569 12 8.5C12 6.84315 10.6569 5.5 9 5.5C7.34315 5.5 6 6.84315 6 8.5C6 10.1569 7.34315 11.5 9 11.5Z" stroke="currentColor" stroke-width="1.8" stroke-linecap="round" stroke-linejoin="round"></path>
  <path d="M15.5 10.5C16.8807 10.5 18 9.38071 18 8C18 6.61929 16.8807 5.5 15.5 5.5" stroke="currentColor" stroke-width="1.8" stroke-linecap="round" stroke-linejoin="round"></path>
  <path d="M4.5 18.5C4.5 15.7386 6.51472 13.5 9 13.5C11.4853 13.5 13.5 15.7386 13.5 18.5" stroke="currentColor" stroke-width="1.8" stroke-linecap="round" stroke-linejoin="round"></path>
  <path d="M15.5 13.5C17.9853 13.5 20 15.7386 20 18.5" stroke="currentColor" stroke-width="1.8" stroke-linecap="round" stroke-linejoin="round"></path>
</svg>