<svg xmlns="http://www.w3.org/2000/svg" viewBox="0 0 1135.42 772.73"><defs><style>.a,.b{fill:none;stroke:#000;stroke-linecap:round;stroke-linejoin:round;}.a{stroke-width:70px;}.b{stroke-width:69px;}</style></defs><circle cx="333" cy="92.73" r="91"/><path d="M605.36,439.16l108,12.09a12.59,12.59,0,0,1,10.5,16.59l-84,244.66A12.58,12.58,0,0,1,628,721H525a12.59,12.59,0,0,1-12-16.28L591.94,448A12.57,12.57,0,0,1,605.36,439.16Z" transform="translate(-346 -229.27)"/><polyline class="a" points="35 387.73 119 257.23 262 233.73 382.5 242.23 464 357.73 602.5 405.73"/><polyline class="b" points="198.5 488.23 220.5 603.23 144.5 732.23"/><polyline class="b" points="272.5 470.23 392.5 590.23 423.5 738.23"/><circle cx="802.42" cy="91" r="91"/><path d="M1232.42,436.27l-134,15,92,268h107.22A16.09,16.09,0,0,0,1313,698.45Z" transform="translate(-346 -229.27)"/><polyline class="a" points="1100.42 386 1016.42 255.5 873.42 232 752.92 240.5 655.92 340.5 533 303.73"/><polyline class="b" points="936.92 486.5 914.92 601.5 990.92 730.5"/><polyline class="b" points="862.92 468.5 742.92 588.5 687.13 715.87"/><circle cx="562" cy="610.73" r="88.5"/></svg>