<?xml version="1.0" encoding="utf-8"?>
<!-- Svg Vector Icons : http://www.onlinewebfonts.com/icon -->
<!DOCTYPE svg PUBLIC "-//W3C//DTD SVG 1.1//EN" "http://www.w3.org/Graphics/SVG/1.1/DTD/svg11.dtd">
<svg version="1.1" xmlns="http://www.w3.org/2000/svg" xmlns:xlink="http://www.w3.org/1999/xlink" x="0px" y="0px" viewBox="0 0 256 256" enable-background="new 0 0 256 256" xml:space="preserve">
<metadata> Svg Vector Icons : http://www.onlinewebfonts.com/icon </metadata>
<g> <path fill="#000000" d="M224.3,231.2H75.7V24.8h73.9v62.7l22.2-20.3l22.4,20.3V24.8h29.7c8.3,0,7.9,5.7,7.9,5.7v195.1 C231.6,225.5,232.1,231.2,224.3,231.2z M61.3,231.4l-29,0c-7.3,0-8.2-6.7-8.2-6.7V30.4c0-6.5,8.2-5.6,8.2-5.6h29V231.4z M246,230.7 V25.2c0,0,0.4-14.6-16.7-14.6H26.7C10.4,10.6,10,25.2,10,25.2v205.6c0,0-0.1,14.6,16.7,14.6h202.5C246.7,245.4,246,230.7,246,230.7 z M194.7,178.8c-0.4,0-0.9,0.1-1.3,0.1c-0.3-0.1-0.6-0.1-0.9-0.1h-93c-0.2,0-0.4,0-0.6,0.1c-0.3,0-0.6-0.1-0.8-0.1 c-3.9,0-7,3.2-7,7.2c0,4,3.2,7.2,7,7.2c0.3,0,0.6,0,0.8-0.1c0.2,0,0.4,0.1,0.6,0.1h93c0.3,0,0.6-0.1,0.9-0.1 c0.4,0.1,0.9,0.1,1.3,0.1c3.9,0,7-3.2,7-7.2C201.7,182.1,198.6,178.8,194.7,178.8L194.7,178.8z M194.7,148.3 c-0.4,0-0.9,0.1-1.3,0.1c-0.3-0.1-0.6-0.1-0.9-0.1h-93c-0.2,0-0.4,0-0.6,0.1c-0.3,0-0.6-0.1-0.8-0.1c-3.9,0-7,3.2-7,7.2 c0,4,3.2,7.2,7,7.2c0.3,0,0.6,0,0.8-0.1c0.2,0,0.4,0.1,0.6,0.1h93c0.3,0,0.6-0.1,0.9-0.1c0.4,0.1,0.9,0.1,1.3,0.1 c3.9,0,7-3.2,7-7.2C201.7,151.5,198.6,148.3,194.7,148.3L194.7,148.3z M167.9,117.7c-0.4,0-0.9,0.1-1.3,0.1 c-0.3-0.1-0.6-0.1-0.9-0.1H99.4c-0.2,0-0.4,0-0.6,0.1c-0.3,0-0.6-0.1-0.8-0.1c-3.9,0-7,3.2-7,7.2s3.2,7.2,7,7.2 c0.3,0,0.6,0,0.8-0.1c0.2,0,0.4,0.1,0.6,0.1h66.3c0.3,0,0.6-0.1,0.9-0.1c0.4,0.1,0.9,0.1,1.3,0.1c3.9,0,7-3.2,7-7.2 C174.9,120.9,171.8,117.7,167.9,117.7z"/></g>
</svg>