<svg xmlns="http://www.w3.org/2000/svg" viewBox="0 0 256 256">
  <path fill="currentColor" d="M128 20C69 20 20 66.7 20 124.2c0 21.9 6.3 42.5 17.3 59.9L20 236l54-16c15.6 8.5 33.4 13.4 54 13.4 59 0 108-46.7 108-104.2C236 66.7 187 20 128 20zm0 187.8c-17.7 0-34.1-4.7-48-13.5l-3.4-2.1-32 9.3 9.5-30.6-2.2-3.5c-10.2-16-15.6-34.3-15.6-53.5 0-52 44-94.3 98-94.3s98 42.3 98 94.3-44 94.3-98 94.3zm55.6-70.5c-3-1.5-17.5-8.7-20.2-9.7-2.7-1-4.7-1.5-6.7 1.5s-7.7 9.7-9.5 11.7c-1.7 2-3.5 2.2-6.5.7-3-1.5-12.5-4.6-23.8-14.7-8.8-7.8-14.7-17.5-16.4-20.5-1.7-3-.2-4.5 1.3-6 1.3-1.3 3-3.5 4.5-5.2s2-3 3-5c1-2 .5-3.7 0-5.2-.5-1.5-6.7-16-9.2-21.9-2.4-5.8-4.8-5-6.7-5h-5.7c-2 0-5.2.7-8 3.7-2.7 3-10.5 10.3-10.5 25s10.7 29 12.2 31c1.5 2 21 32.5 51 45.5 30 13 30 8.7 35.5 8.2 5.5-.5 17.5-7.2 20-14.2 2.5-7 2.5-13 1.7-14.2-.8-1.2-2.8-2-5.8-3.5z"></path>
</svg>
