<svg width="24" height="24" viewBox="0 0 24 24" fill="none" xmlns="http://www.w3.org/2000/svg">
  <path d="M12 21C16.9706 21 21 16.9706 21 12C21 7.0294 16.9706 3 12 3C7.0294 3 3 7.0294 3 12C3 16.9706 7.0294 21 12 21Z" stroke="currentColor" stroke-width="2"></path>
  <path d="M12 17C14.7614 17 17 14.7614 17 12C17 9.2386 14.7614 7 12 7C9.2386 7 7 9.2386 7 12C7 14.7614 9.2386 17 12 17Z" stroke="currentColor" stroke-width="2"></path>
  <path d="M12 13.5C12.8284 13.5 13.5 12.8284 13.5 12C13.5 11.1716 12.8284 10.5 12 10.5C11.1716 10.5 10.5 11.1716 10.5 12C10.5 12.8284 11.1716 13.5 12 13.5Z" fill="currentColor"></path>
</svg>