<svg width="28" height="36" viewBox="0 0 28 36" fill="none" xmlns="http://www.w3.org/2000/svg">
  <path d="M14 35C14 35 25 24.7 25 14C25 7.92487 20.0751 3 14 3C7.92487 3 3 7.92487 3 14C3 24.7 14 35 14 35Z" fill="#111111"></path>
  <path d="M14 35C14 35 25 24.7 25 14C25 7.92487 20.0751 3 14 3C7.92487 3 3 7.92487 3 14C3 24.7 14 35 14 35Z" stroke="#FDE100" stroke-width="2"></path>
  <path d="M14 18.5C16.4853 18.5 18.5 16.4853 18.5 14C18.5 11.5147 16.4853 9.5 14 9.5C11.5147 9.5 9.5 11.5147 9.5 14C9.5 16.4853 11.5147 18.5 14 18.5Z" fill="#FDE100"></path>
</svg>