<svg width="24" height="24" viewBox="0 0 24 24" fill="none" xmlns="http://www.w3.org/2000/svg">
  <path d="M5 13V11C5 7.13401 8.13401 4 12 4C15.866 4 19 7.13401 19 11V13" stroke="#111111" stroke-width="1.8" stroke-linecap="round"></path>
  <path d="M4.5 13.5C4.5 12.6716 5.17157 12 6 12H7.5V17H6C5.17157 17 4.5 16.3284 4.5 15.5V13.5Z" stroke="#FDE100" stroke-width="1.8"></path>
  <path d="M16.5 12H18C18.8284 12 19.5 12.6716 19.5 13.5V15.5C19.5 16.3284 18.8284 17 18 17H16.5V12Z" stroke="#FDE100" stroke-width="1.8"></path>
  <path d="M19 17C19 19 17.5 20.5 15.25 20.5H13.5" stroke="#111111" stroke-width="1.8" stroke-linecap="round"></path>
  <path d="M11 20.5H13.5" stroke="#FDE100" stroke-width="1.8" stroke-linecap="round"></path>
</svg>